<svg xmlns="http://www.w3.org/2000/svg" version="1.1" xmlns:xlink="http://www.w3.org/1999/xlink" width="512" height="512" x="0" y="0" viewBox="0 0 512 512" style="enable-background:new 0 0 512 512" xml:space="preserve" class=""><g><path d="m59.826 499.161-28.631-9.091 26.796-84.389 77.491-30.43 10.981 27.962-64.172 25.198zM119.726 242.272 57.991 218.03l-26.796-84.389 28.631-9.092 22.465 70.75 48.415 19.012zM21.485 365.75 0 344.755l59.099-60.474h66.117v30.039H71.745z" style="" fill="#333333" data-original="#333333" class=""></path><path d="m452.174 499.161-22.465-70.75-64.171-25.198 10.98-27.962 77.492 30.43 26.795 84.389zM392.274 242.272l-10.98-27.961 48.416-19.012 22.464-70.75 28.632 9.092-26.796 84.389zM490.515 365.75l-50.26-51.43h-53.47v-30.039h66.116L512 344.755z" style="" fill="#1a1a1a" data-original="#1a1a1a"></path><path d="M232.424 82.304h-30.04V60.363c0-9.641-7.843-17.484-17.484-17.484v-30.04c26.205 0 47.524 21.319 47.524 47.524v21.941z" style="" fill="#333333" data-original="#333333" class=""></path><path d="M309.617 82.304h-30.04V60.363c0-26.205 21.319-47.524 47.524-47.524v30.04c-9.641 0-17.484 7.843-17.484 17.484v21.941z" style="" fill="#1a1a1a" data-original="#1a1a1a"></path><path d="M256 470.049c-76.853 0-139.156-62.302-139.156-139.155V191.739h278.311v139.156c.001 76.853-62.302 139.154-139.155 139.154z" style="" fill="#ffa900" data-original="#ffa900"></path><path d="M256 470.049V191.738h139.155v139.156c.001 76.854-62.302 139.155-139.155 139.155z" style="" fill="#ff8800" data-original="#ff8800"></path><path d="M256 60.495c-54.267 0-98.26 43.992-98.26 98.26v54.615h196.521v-54.615c0-54.267-43.993-98.26-98.261-98.26z" style="" fill="#4d4d4d" data-original="#4d4d4d" class=""></path><path d="M256 60.495V213.37h98.261v-54.615c0-54.267-43.993-98.26-98.261-98.26z" style="" fill="#333333" data-original="#333333" class=""></path><path d="M395.156 191.739H116.845L256 304.585z" style="" fill="#ff8800" data-original="#ff8800"></path><path d="M395.156 191.739H256v112.846z" style="" fill="#e47700" data-original="#e47700" class=""></path></g></svg>